<?xml version="1.0" encoding="utf-8"?>
<!-- Generator: Adobe Illustrator 18.0.0, SVG Export Plug-In . SVG Version: 6.00 Build 0)  -->
<!DOCTYPE svg PUBLIC "-//W3C//DTD SVG 1.1//EN" "http://www.w3.org/Graphics/SVG/1.1/DTD/svg11.dtd">
<svg version="1.1" id="Layer_1" xmlns="http://www.w3.org/2000/svg" xmlns:xlink="http://www.w3.org/1999/xlink" x="0px" y="0px"
	 viewBox="0 738 427 54" enable-background="new 0 738 427 54" xml:space="preserve">
<g enable-background="new    ">
	<path d="M18.6,751.2l4.5,23.8h0.1l4.8-23.8h6.7l-7.4,32.1h-8.3l-7.4-32.1H18.6z"/>
	<path d="M37.5,783.3v-32.1H44v32.1H37.5z"/>
	<path d="M53.6,751.2l4.5,23.8h0.1l4.8-23.8h6.7l-7.4,32.1h-8.3l-7.4-32.1H53.6z"/>
	<path d="M72.5,783.3v-32.1h6.5v32.1H72.5z"/>
	<path d="M90,751.2h8l8.5,32.1h-6.8l-1.5-6.8h-8.6l-1.5,6.8h-6.8L90,751.2z M90.9,771.2h6.3l-3.1-14.4H94L90.9,771.2z"/>
	<path d="M116.2,751.2l7.8,22h0.1v-22h5.9v32.1h-7.4l-7.9-22.5h-0.1v22.5h-5.9v-32.1H116.2z"/>
	<path d="M145.4,783.3v-32.1h6.5V778h11.5v5.3H145.4z"/>
	<path d="M184.2,751.2v5.3h-11.5v7.6h10.8v5.3h-10.8v8.6h11.9v5.3h-18.4v-32.1H184.2z"/>
	<path d="M205.8,751.2v5.3h-11.5v7.6h10.8v5.3h-10.8v8.6h11.9v5.3h-18.4v-32.1H205.8z"/>
	<path d="M237.2,772.8c0.3-0.7,0.6-1.5,0.8-2.4c0.2-0.9,0.3-1.7,0.3-2.4h5.6c0,1.7-0.3,3.4-0.9,5c-0.6,1.6-1.4,3.1-2.4,4.5l4.2,5.9
		H238l-1.8-2.5c-0.8,1-1.9,1.7-3.3,2.3c-1.4,0.6-2.9,0.8-4.5,0.8c-2,0-3.7-0.3-5-0.9c-1.3-0.6-2.3-1.4-3-2.3c-0.7-0.9-1.2-1.9-1.5-3
		s-0.4-2.1-0.4-3c0-1.9,0.6-3.6,1.7-5.1c1.2-1.5,2.7-2.9,4.7-4.2l-1.1-1.7c-0.5-0.7-0.8-1.2-1.1-1.8c-0.3-0.5-0.5-1-0.7-1.4
		c-0.2-0.5-0.3-0.9-0.3-1.3c-0.1-0.4-0.1-0.9-0.1-1.3c0-1,0.2-2,0.6-2.8c0.4-0.8,1-1.6,1.7-2.1c0.7-0.6,1.6-1,2.6-1.3
		c1-0.3,2.1-0.5,3.3-0.5c1.4,0,2.6,0.2,3.6,0.5c1,0.3,1.8,0.8,2.5,1.4c0.7,0.6,1.1,1.3,1.5,2.1c0.3,0.8,0.5,1.7,0.5,2.6
		c0,1.6-0.5,3.1-1.4,4.4c-0.9,1.3-2.3,2.6-4.2,4L237.2,772.8z M228.1,769.3c-1.3,1-2.1,1.9-2.6,2.7c-0.5,0.8-0.7,1.8-0.7,2.7
		c0,0.5,0.1,1,0.3,1.5c0.2,0.5,0.5,0.9,0.9,1.4c0.4,0.4,0.8,0.7,1.4,1c0.6,0.3,1.2,0.4,1.9,0.4c1.7,0,3.1-0.7,4.2-2L228.1,769.3z
		 M227.1,757.8c0,0.9,0.5,2.1,1.6,3.5l0.8,1.1l1.2-1c0.7-0.6,1.2-1.2,1.6-1.8s0.5-1.2,0.5-1.7c0-0.9-0.3-1.5-0.8-2
		c-0.5-0.5-1.2-0.7-2-0.7c-0.8,0-1.4,0.2-2,0.7C227.4,756.3,227.1,756.9,227.1,757.8z"/>
	<path d="M264.1,751.2h8l8.5,32.1h-6.8l-1.5-6.8h-8.6l-1.5,6.8h-6.8L264.1,751.2z M264.9,771.2h6.3l-3.1-14.4H268L264.9,771.2z"/>
	<path d="M282.8,783.3v-32.1h6.5V778h11.5v5.3H282.8z"/>
	<path d="M321.6,751.2v5.3h-11.5v7.6h10.8v5.3h-10.8v8.6h11.9v5.3h-18.4v-32.1H321.6z"/>
	<path d="M324,751.2h7.2l4.1,10.4l4.1-10.4h7.1l-7.5,15.9l8,16.2h-7.3l-4.6-10.9l-4.6,10.9h-7.1l8-16.2L324,751.2z"/>
	<path d="M379.1,751.2v5.3h-7v26.8h-6.5v-26.8h-7v-5.3H379.1z"/>
	<path d="M385.7,751.2h8l8.5,32.1h-6.8l-1.5-6.8h-8.5l-1.5,6.8h-6.8L385.7,751.2z M386.5,771.2h6.3l-3.1-14.4h-0.1L386.5,771.2z"/>
	<path d="M404.7,783.3v-32.1h6.5v32.1H404.7z"/>
</g>
</svg>
